<svg xmlns="http://www.w3.org/2000/svg" xmlns:xlink="http://www.w3.org/1999/xlink" width="232" zoomAndPan="magnify" viewBox="0 0 174 50.999998" height="68" preserveAspectRatio="xMidYMid meet" version="1.0"><defs><g/></defs><g fill="#ffffff" fill-opacity="1"><g transform="translate(8.767768, 35.967766)"><g><path d="M 10.984375 0 L 6.171875 -15.6875 L 6.046875 -15.6875 C 6.210938 -12.488281 6.296875 -10.359375 6.296875 -9.296875 L 6.296875 0 L 2.515625 0 L 2.515625 -19.984375 L 8.28125 -19.984375 L 13.015625 -4.703125 L 13.09375 -4.703125 L 18.109375 -19.984375 L 23.890625 -19.984375 L 23.890625 0 L 19.9375 0 L 19.9375 -9.46875 C 19.9375 -9.90625 19.941406 -10.414062 19.953125 -11 C 19.960938 -11.582031 20.023438 -13.132812 20.140625 -15.65625 L 20.015625 -15.65625 L 14.859375 0 Z M 10.984375 0 "/></g></g></g><g fill="#ffffff" fill-opacity="1"><g transform="translate(35.16448, 35.967766)"><g><path d="M 5.515625 -7.671875 C 5.515625 -6.160156 5.757812 -5.015625 6.25 -4.234375 C 6.75 -3.460938 7.5625 -3.078125 8.6875 -3.078125 C 9.789062 -3.078125 10.585938 -3.460938 11.078125 -4.234375 C 11.566406 -5.003906 11.8125 -6.148438 11.8125 -7.671875 C 11.8125 -9.179688 11.566406 -10.3125 11.078125 -11.0625 C 10.585938 -11.820312 9.78125 -12.203125 8.65625 -12.203125 C 7.539062 -12.203125 6.738281 -11.828125 6.25 -11.078125 C 5.757812 -10.328125 5.515625 -9.191406 5.515625 -7.671875 Z M 16.078125 -7.671875 C 16.078125 -5.179688 15.421875 -3.234375 14.109375 -1.828125 C 12.796875 -0.421875 10.96875 0.28125 8.625 0.28125 C 7.15625 0.28125 5.859375 -0.0390625 4.734375 -0.6875 C 3.617188 -1.332031 2.757812 -2.253906 2.15625 -3.453125 C 1.5625 -4.660156 1.265625 -6.066406 1.265625 -7.671875 C 1.265625 -10.171875 1.914062 -12.113281 3.21875 -13.5 C 4.519531 -14.882812 6.347656 -15.578125 8.703125 -15.578125 C 10.171875 -15.578125 11.46875 -15.253906 12.59375 -14.609375 C 13.71875 -13.972656 14.578125 -13.054688 15.171875 -11.859375 C 15.773438 -10.671875 16.078125 -9.273438 16.078125 -7.671875 Z M 16.078125 -7.671875 "/></g></g></g><g fill="#ffffff" fill-opacity="1"><g transform="translate(52.497997, 35.967766)"><g><path d="M 5.515625 -7.671875 C 5.515625 -6.160156 5.757812 -5.015625 6.25 -4.234375 C 6.75 -3.460938 7.5625 -3.078125 8.6875 -3.078125 C 9.789062 -3.078125 10.585938 -3.460938 11.078125 -4.234375 C 11.566406 -5.003906 11.8125 -6.148438 11.8125 -7.671875 C 11.8125 -9.179688 11.566406 -10.3125 11.078125 -11.0625 C 10.585938 -11.820312 9.78125 -12.203125 8.65625 -12.203125 C 7.539062 -12.203125 6.738281 -11.828125 6.25 -11.078125 C 5.757812 -10.328125 5.515625 -9.191406 5.515625 -7.671875 Z M 16.078125 -7.671875 C 16.078125 -5.179688 15.421875 -3.234375 14.109375 -1.828125 C 12.796875 -0.421875 10.96875 0.28125 8.625 0.28125 C 7.15625 0.28125 5.859375 -0.0390625 4.734375 -0.6875 C 3.617188 -1.332031 2.757812 -2.253906 2.15625 -3.453125 C 1.5625 -4.660156 1.265625 -6.066406 1.265625 -7.671875 C 1.265625 -10.171875 1.914062 -12.113281 3.21875 -13.5 C 4.519531 -14.882812 6.347656 -15.578125 8.703125 -15.578125 C 10.171875 -15.578125 11.46875 -15.253906 12.59375 -14.609375 C 13.71875 -13.972656 14.578125 -13.054688 15.171875 -11.859375 C 15.773438 -10.671875 16.078125 -9.273438 16.078125 -7.671875 Z M 16.078125 -7.671875 "/></g></g></g><g fill="#ffffff" fill-opacity="1"><g transform="translate(69.831515, 35.967766)"><g><path d="M 16.296875 0 L 12.125 0 L 12.125 -8.921875 C 12.125 -10.023438 11.925781 -10.851562 11.53125 -11.40625 C 11.144531 -11.957031 10.523438 -12.234375 9.671875 -12.234375 C 8.503906 -12.234375 7.660156 -11.84375 7.140625 -11.0625 C 6.617188 -10.289062 6.359375 -9 6.359375 -7.1875 L 6.359375 0 L 2.1875 0 L 2.1875 -15.28125 L 5.375 -15.28125 L 5.9375 -13.328125 L 6.171875 -13.328125 C 6.628906 -14.066406 7.265625 -14.625 8.078125 -15 C 8.898438 -15.382812 9.832031 -15.578125 10.875 -15.578125 C 12.644531 -15.578125 13.988281 -15.09375 14.90625 -14.125 C 15.832031 -13.164062 16.296875 -11.78125 16.296875 -9.96875 Z M 16.296875 0 "/></g></g></g><g fill="#22222e" fill-opacity="1"><g transform="translate(88.232605, 35.967766)"><g><path d="M 10.234375 0 L 5.984375 0 L 5.984375 -16.46875 L 0.5625 -16.46875 L 0.5625 -19.984375 L 15.65625 -19.984375 L 15.65625 -16.46875 L 10.234375 -16.46875 Z M 10.234375 0 "/></g></g></g><g fill="#22222e" fill-opacity="1"><g transform="translate(104.445186, 35.967766)"><g><path d="M 10.71875 -15.578125 C 11.28125 -15.578125 11.75 -15.535156 12.125 -15.453125 L 11.8125 -11.546875 C 11.476562 -11.628906 11.066406 -11.671875 10.578125 -11.671875 C 9.253906 -11.671875 8.21875 -11.328125 7.46875 -10.640625 C 6.726562 -9.960938 6.359375 -9.007812 6.359375 -7.78125 L 6.359375 0 L 2.1875 0 L 2.1875 -15.28125 L 5.34375 -15.28125 L 5.96875 -12.71875 L 6.171875 -12.71875 C 6.640625 -13.570312 7.273438 -14.257812 8.078125 -14.78125 C 8.890625 -15.3125 9.769531 -15.578125 10.71875 -15.578125 Z M 10.71875 -15.578125 "/></g></g></g><g fill="#22222e" fill-opacity="1"><g transform="translate(117.158255, 35.967766)"><g><path d="M 11.890625 0 L 11.09375 -2.078125 L 10.984375 -2.078125 C 10.273438 -1.191406 9.550781 -0.578125 8.8125 -0.234375 C 8.070312 0.109375 7.101562 0.28125 5.90625 0.28125 C 4.4375 0.28125 3.28125 -0.140625 2.4375 -0.984375 C 1.59375 -1.828125 1.171875 -3.019531 1.171875 -4.5625 C 1.171875 -6.1875 1.738281 -7.382812 2.875 -8.15625 C 4.007812 -8.925781 5.722656 -9.351562 8.015625 -9.4375 L 10.671875 -9.515625 L 10.671875 -10.1875 C 10.671875 -11.738281 9.875 -12.515625 8.28125 -12.515625 C 7.0625 -12.515625 5.628906 -12.144531 3.984375 -11.40625 L 2.59375 -14.21875 C 4.351562 -15.132812 6.304688 -15.59375 8.453125 -15.59375 C 10.503906 -15.59375 12.078125 -15.144531 13.171875 -14.25 C 14.265625 -13.363281 14.8125 -12.007812 14.8125 -10.1875 L 14.8125 0 Z M 10.671875 -7.078125 L 9.046875 -7.03125 C 7.835938 -6.988281 6.9375 -6.765625 6.34375 -6.359375 C 5.75 -5.960938 5.453125 -5.359375 5.453125 -4.546875 C 5.453125 -3.367188 6.128906 -2.78125 7.484375 -2.78125 C 8.441406 -2.78125 9.210938 -3.054688 9.796875 -3.609375 C 10.378906 -4.160156 10.671875 -4.898438 10.671875 -5.828125 Z M 10.671875 -7.078125 "/></g></g></g><g fill="#22222e" fill-opacity="1"><g transform="translate(134.06801, 35.967766)"><g><path d="M 8.390625 0.28125 C 3.640625 0.28125 1.265625 -2.332031 1.265625 -7.5625 C 1.265625 -10.15625 1.910156 -12.140625 3.203125 -13.515625 C 4.492188 -14.890625 6.347656 -15.578125 8.765625 -15.578125 C 10.535156 -15.578125 12.117188 -15.226562 13.515625 -14.53125 L 12.296875 -11.3125 C 11.640625 -11.570312 11.023438 -11.785156 10.453125 -11.953125 C 9.890625 -12.117188 9.328125 -12.203125 8.765625 -12.203125 C 6.597656 -12.203125 5.515625 -10.664062 5.515625 -7.59375 C 5.515625 -4.601562 6.597656 -3.109375 8.765625 -3.109375 C 9.566406 -3.109375 10.304688 -3.210938 10.984375 -3.421875 C 11.671875 -3.640625 12.359375 -3.976562 13.046875 -4.4375 L 13.046875 -0.859375 C 12.367188 -0.429688 11.6875 -0.132812 11 0.03125 C 10.3125 0.195312 9.441406 0.28125 8.390625 0.28125 Z M 8.390625 0.28125 "/></g></g></g><g fill="#22222e" fill-opacity="1"><g transform="translate(148.46249, 35.967766)"><g><path d="M 8.515625 -12.609375 C 7.628906 -12.609375 6.9375 -12.328125 6.4375 -11.765625 C 5.9375 -11.203125 5.648438 -10.40625 5.578125 -9.375 L 11.4375 -9.375 C 11.414062 -10.40625 11.144531 -11.203125 10.625 -11.765625 C 10.101562 -12.328125 9.398438 -12.609375 8.515625 -12.609375 Z M 9.109375 0.28125 C 6.648438 0.28125 4.726562 -0.394531 3.34375 -1.75 C 1.957031 -3.113281 1.265625 -5.039062 1.265625 -7.53125 C 1.265625 -10.09375 1.898438 -12.070312 3.171875 -13.46875 C 4.453125 -14.875 6.222656 -15.578125 8.484375 -15.578125 C 10.648438 -15.578125 12.332031 -14.957031 13.53125 -13.71875 C 14.738281 -12.488281 15.34375 -10.789062 15.34375 -8.625 L 15.34375 -6.609375 L 5.484375 -6.609375 C 5.523438 -5.421875 5.875 -4.492188 6.53125 -3.828125 C 7.1875 -3.160156 8.109375 -2.828125 9.296875 -2.828125 C 10.210938 -2.828125 11.082031 -2.921875 11.90625 -3.109375 C 12.726562 -3.304688 13.585938 -3.613281 14.484375 -4.03125 L 14.484375 -0.8125 C 13.753906 -0.445312 12.972656 -0.175781 12.140625 0 C 11.304688 0.1875 10.296875 0.28125 9.109375 0.28125 Z M 9.109375 0.28125 "/></g></g></g><g fill="#ffffff" fill-opacity="1"><g transform="translate(8.767768, 35.967766)"><g><path d="M 10.984375 0 L 6.171875 -15.6875 L 6.046875 -15.6875 C 6.210938 -12.488281 6.296875 -10.359375 6.296875 -9.296875 L 6.296875 0 L 2.515625 0 L 2.515625 -19.984375 L 8.28125 -19.984375 L 13.015625 -4.703125 L 13.09375 -4.703125 L 18.109375 -19.984375 L 23.890625 -19.984375 L 23.890625 0 L 19.9375 0 L 19.9375 -9.46875 C 19.9375 -9.90625 19.941406 -10.414062 19.953125 -11 C 19.960938 -11.582031 20.023438 -13.132812 20.140625 -15.65625 L 20.015625 -15.65625 L 14.859375 0 Z M 10.984375 0 "/></g></g></g><g fill="#ffffff" fill-opacity="1"><g transform="translate(35.16448, 35.967766)"><g><path d="M 5.515625 -7.671875 C 5.515625 -6.160156 5.757812 -5.015625 6.25 -4.234375 C 6.75 -3.460938 7.5625 -3.078125 8.6875 -3.078125 C 9.789062 -3.078125 10.585938 -3.460938 11.078125 -4.234375 C 11.566406 -5.003906 11.8125 -6.148438 11.8125 -7.671875 C 11.8125 -9.179688 11.566406 -10.3125 11.078125 -11.0625 C 10.585938 -11.820312 9.78125 -12.203125 8.65625 -12.203125 C 7.539062 -12.203125 6.738281 -11.828125 6.25 -11.078125 C 5.757812 -10.328125 5.515625 -9.191406 5.515625 -7.671875 Z M 16.078125 -7.671875 C 16.078125 -5.179688 15.421875 -3.234375 14.109375 -1.828125 C 12.796875 -0.421875 10.96875 0.28125 8.625 0.28125 C 7.15625 0.28125 5.859375 -0.0390625 4.734375 -0.6875 C 3.617188 -1.332031 2.757812 -2.253906 2.15625 -3.453125 C 1.5625 -4.660156 1.265625 -6.066406 1.265625 -7.671875 C 1.265625 -10.171875 1.914062 -12.113281 3.21875 -13.5 C 4.519531 -14.882812 6.347656 -15.578125 8.703125 -15.578125 C 10.171875 -15.578125 11.46875 -15.253906 12.59375 -14.609375 C 13.71875 -13.972656 14.578125 -13.054688 15.171875 -11.859375 C 15.773438 -10.671875 16.078125 -9.273438 16.078125 -7.671875 Z M 16.078125 -7.671875 "/></g></g></g><g fill="#ffffff" fill-opacity="1"><g transform="translate(52.497997, 35.967766)"><g><path d="M 5.515625 -7.671875 C 5.515625 -6.160156 5.757812 -5.015625 6.25 -4.234375 C 6.75 -3.460938 7.5625 -3.078125 8.6875 -3.078125 C 9.789062 -3.078125 10.585938 -3.460938 11.078125 -4.234375 C 11.566406 -5.003906 11.8125 -6.148438 11.8125 -7.671875 C 11.8125 -9.179688 11.566406 -10.3125 11.078125 -11.0625 C 10.585938 -11.820312 9.78125 -12.203125 8.65625 -12.203125 C 7.539062 -12.203125 6.738281 -11.828125 6.25 -11.078125 C 5.757812 -10.328125 5.515625 -9.191406 5.515625 -7.671875 Z M 16.078125 -7.671875 C 16.078125 -5.179688 15.421875 -3.234375 14.109375 -1.828125 C 12.796875 -0.421875 10.96875 0.28125 8.625 0.28125 C 7.15625 0.28125 5.859375 -0.0390625 4.734375 -0.6875 C 3.617188 -1.332031 2.757812 -2.253906 2.15625 -3.453125 C 1.5625 -4.660156 1.265625 -6.066406 1.265625 -7.671875 C 1.265625 -10.171875 1.914062 -12.113281 3.21875 -13.5 C 4.519531 -14.882812 6.347656 -15.578125 8.703125 -15.578125 C 10.171875 -15.578125 11.46875 -15.253906 12.59375 -14.609375 C 13.71875 -13.972656 14.578125 -13.054688 15.171875 -11.859375 C 15.773438 -10.671875 16.078125 -9.273438 16.078125 -7.671875 Z M 16.078125 -7.671875 "/></g></g></g><g fill="#ffffff" fill-opacity="1"><g transform="translate(69.831515, 35.967766)"><g><path d="M 16.296875 0 L 12.125 0 L 12.125 -8.921875 C 12.125 -10.023438 11.925781 -10.851562 11.53125 -11.40625 C 11.144531 -11.957031 10.523438 -12.234375 9.671875 -12.234375 C 8.503906 -12.234375 7.660156 -11.84375 7.140625 -11.0625 C 6.617188 -10.289062 6.359375 -9 6.359375 -7.1875 L 6.359375 0 L 2.1875 0 L 2.1875 -15.28125 L 5.375 -15.28125 L 5.9375 -13.328125 L 6.171875 -13.328125 C 6.628906 -14.066406 7.265625 -14.625 8.078125 -15 C 8.898438 -15.382812 9.832031 -15.578125 10.875 -15.578125 C 12.644531 -15.578125 13.988281 -15.09375 14.90625 -14.125 C 15.832031 -13.164062 16.296875 -11.78125 16.296875 -9.96875 Z M 16.296875 0 "/></g></g></g><g fill="#22222e" fill-opacity="1"><g transform="translate(88.232605, 35.967766)"><g><path d="M 10.234375 0 L 5.984375 0 L 5.984375 -16.46875 L 0.5625 -16.46875 L 0.5625 -19.984375 L 15.65625 -19.984375 L 15.65625 -16.46875 L 10.234375 -16.46875 Z M 10.234375 0 "/></g></g></g><g fill="#22222e" fill-opacity="1"><g transform="translate(104.445186, 35.967766)"><g><path d="M 10.71875 -15.578125 C 11.28125 -15.578125 11.75 -15.535156 12.125 -15.453125 L 11.8125 -11.546875 C 11.476562 -11.628906 11.066406 -11.671875 10.578125 -11.671875 C 9.253906 -11.671875 8.21875 -11.328125 7.46875 -10.640625 C 6.726562 -9.960938 6.359375 -9.007812 6.359375 -7.78125 L 6.359375 0 L 2.1875 0 L 2.1875 -15.28125 L 5.34375 -15.28125 L 5.96875 -12.71875 L 6.171875 -12.71875 C 6.640625 -13.570312 7.273438 -14.257812 8.078125 -14.78125 C 8.890625 -15.3125 9.769531 -15.578125 10.71875 -15.578125 Z M 10.71875 -15.578125 "/></g></g></g><g fill="#22222e" fill-opacity="1"><g transform="translate(117.158255, 35.967766)"><g><path d="M 11.890625 0 L 11.09375 -2.078125 L 10.984375 -2.078125 C 10.273438 -1.191406 9.550781 -0.578125 8.8125 -0.234375 C 8.070312 0.109375 7.101562 0.28125 5.90625 0.28125 C 4.4375 0.28125 3.28125 -0.140625 2.4375 -0.984375 C 1.59375 -1.828125 1.171875 -3.019531 1.171875 -4.5625 C 1.171875 -6.1875 1.738281 -7.382812 2.875 -8.15625 C 4.007812 -8.925781 5.722656 -9.351562 8.015625 -9.4375 L 10.671875 -9.515625 L 10.671875 -10.1875 C 10.671875 -11.738281 9.875 -12.515625 8.28125 -12.515625 C 7.0625 -12.515625 5.628906 -12.144531 3.984375 -11.40625 L 2.59375 -14.21875 C 4.351562 -15.132812 6.304688 -15.59375 8.453125 -15.59375 C 10.503906 -15.59375 12.078125 -15.144531 13.171875 -14.25 C 14.265625 -13.363281 14.8125 -12.007812 14.8125 -10.1875 L 14.8125 0 Z M 10.671875 -7.078125 L 9.046875 -7.03125 C 7.835938 -6.988281 6.9375 -6.765625 6.34375 -6.359375 C 5.75 -5.960938 5.453125 -5.359375 5.453125 -4.546875 C 5.453125 -3.367188 6.128906 -2.78125 7.484375 -2.78125 C 8.441406 -2.78125 9.210938 -3.054688 9.796875 -3.609375 C 10.378906 -4.160156 10.671875 -4.898438 10.671875 -5.828125 Z M 10.671875 -7.078125 "/></g></g></g><g fill="#22222e" fill-opacity="1"><g transform="translate(134.06801, 35.967766)"><g><path d="M 8.390625 0.28125 C 3.640625 0.28125 1.265625 -2.332031 1.265625 -7.5625 C 1.265625 -10.15625 1.910156 -12.140625 3.203125 -13.515625 C 4.492188 -14.890625 6.347656 -15.578125 8.765625 -15.578125 C 10.535156 -15.578125 12.117188 -15.226562 13.515625 -14.53125 L 12.296875 -11.3125 C 11.640625 -11.570312 11.023438 -11.785156 10.453125 -11.953125 C 9.890625 -12.117188 9.328125 -12.203125 8.765625 -12.203125 C 6.597656 -12.203125 5.515625 -10.664062 5.515625 -7.59375 C 5.515625 -4.601562 6.597656 -3.109375 8.765625 -3.109375 C 9.566406 -3.109375 10.304688 -3.210938 10.984375 -3.421875 C 11.671875 -3.640625 12.359375 -3.976562 13.046875 -4.4375 L 13.046875 -0.859375 C 12.367188 -0.429688 11.6875 -0.132812 11 0.03125 C 10.3125 0.195312 9.441406 0.28125 8.390625 0.28125 Z M 8.390625 0.28125 "/></g></g></g><g fill="#22222e" fill-opacity="1"><g transform="translate(148.46249, 35.967766)"><g><path d="M 8.515625 -12.609375 C 7.628906 -12.609375 6.9375 -12.328125 6.4375 -11.765625 C 5.9375 -11.203125 5.648438 -10.40625 5.578125 -9.375 L 11.4375 -9.375 C 11.414062 -10.40625 11.144531 -11.203125 10.625 -11.765625 C 10.101562 -12.328125 9.398438 -12.609375 8.515625 -12.609375 Z M 9.109375 0.28125 C 6.648438 0.28125 4.726562 -0.394531 3.34375 -1.75 C 1.957031 -3.113281 1.265625 -5.039062 1.265625 -7.53125 C 1.265625 -10.09375 1.898438 -12.070312 3.171875 -13.46875 C 4.453125 -14.875 6.222656 -15.578125 8.484375 -15.578125 C 10.648438 -15.578125 12.332031 -14.957031 13.53125 -13.71875 C 14.738281 -12.488281 15.34375 -10.789062 15.34375 -8.625 L 15.34375 -6.609375 L 5.484375 -6.609375 C 5.523438 -5.421875 5.875 -4.492188 6.53125 -3.828125 C 7.1875 -3.160156 8.109375 -2.828125 9.296875 -2.828125 C 10.210938 -2.828125 11.082031 -2.921875 11.90625 -3.109375 C 12.726562 -3.304688 13.585938 -3.613281 14.484375 -4.03125 L 14.484375 -0.8125 C 13.753906 -0.445312 12.972656 -0.175781 12.140625 0 C 11.304688 0.1875 10.296875 0.28125 9.109375 0.28125 Z M 9.109375 0.28125 "/></g></g></g></svg>