<svg xmlns="http://www.w3.org/2000/svg" xmlns:xlink="http://www.w3.org/1999/xlink" width="89" zoomAndPan="magnify" viewBox="0 0 66.75 66.75" height="89" preserveAspectRatio="xMidYMid meet" version="1.0"><defs><filter x="0%" y="0%" width="100%" height="100%" id="ccc3e5df3f"><feColorMatrix values="0 0 0 0 1 0 0 0 0 1 0 0 0 0 1 0 0 0 1 0" color-interpolation-filters="sRGB"/></filter><clipPath id="97080b528b"><path d="M 0 0 L 65.71875 0 L 65.71875 66.179688 L 0 66.179688 Z M 0 0 " clip-rule="nonzero"/></clipPath><mask id="8c2cd2ac9d"><g filter="url(#ccc3e5df3f)"><rect x="-6.675" width="80.1" fill="#000000" y="-6.675" height="80.1" fill-opacity="0.71"/></g></mask><clipPath id="3f3b1cc288"><path d="M 31 1.082031 L 37 1.082031 L 37 7 L 31 7 Z M 31 1.082031 " clip-rule="nonzero"/></clipPath><clipPath id="fe1467b42e"><path d="M 46 18 L 51.167969 18 L 51.167969 24 L 46 24 Z M 46 18 " clip-rule="nonzero"/></clipPath><clipPath id="b793576bfd"><path d="M 0.476562 5 L 10 5 L 10 15 L 0.476562 15 Z M 0.476562 5 " clip-rule="nonzero"/></clipPath><clipPath id="788148f8ed"><path d="M 9 36 L 18 36 L 18 45.199219 L 9 45.199219 Z M 9 36 " clip-rule="nonzero"/></clipPath><clipPath id="471b337be4"><rect x="0" width="52" y="0" height="46"/></clipPath></defs><g clip-path="url(#97080b528b)"><path fill="#e9e9e9" d="M 65.355469 20.878906 C 64.980469 18.703125 64.375 16.597656 63.46875 14.582031 C 62.125 11.574219 60.28125 8.925781 57.863281 6.679688 C 55.867188 4.824219 53.613281 3.367188 51.125 2.273438 C 48.1875 0.988281 45.113281 0.292969 41.921875 0.132812 C 39.269531 -0.00390625 36.632812 0.195312 34.019531 0.734375 C 30.117188 1.535156 26.476562 2.996094 23.035156 4.988281 C 22.316406 5.40625 21.644531 5.894531 20.84375 6.175781 C 18.597656 6.96875 16.476562 8.03125 14.472656 9.316406 C 12.335938 10.683594 10.390625 12.273438 8.632812 14.097656 C 7.523438 15.253906 6.503906 16.480469 5.582031 17.785156 C 4.039062 19.972656 2.808594 22.324219 1.878906 24.835938 C 0.808594 27.722656 0.210938 30.703125 0.0664062 33.769531 C 0.015625 34.890625 0.03125 36.011719 0.105469 37.136719 C 0.183594 38.375 0.324219 39.601562 0.5625 40.8125 C 1.335938 44.742188 2.820312 48.386719 5.019531 51.734375 C 6.644531 54.195312 8.574219 56.378906 10.8125 58.300781 C 12.84375 60.042969 15.058594 61.5 17.453125 62.699219 C 19.351562 63.644531 21.328125 64.40625 23.375 64.964844 C 25.960938 65.671875 28.589844 66.078125 31.273438 66.152344 C 32.199219 66.175781 33.121094 66.152344 34.042969 66.128906 C 34.714844 66.113281 35.386719 66.0625 36.046875 65.980469 C 37.734375 65.773438 39.402344 65.46875 41.046875 65.023438 C 43.253906 64.425781 45.382812 63.617188 47.417969 62.582031 C 49.628906 61.449219 51.691406 60.085938 53.597656 58.484375 C 55.238281 57.109375 56.71875 55.585938 58.046875 53.914062 C 59.710938 51.820312 61.0625 49.53125 62.136719 47.082031 C 62.976562 45.15625 63.605469 43.15625 64.035156 41.105469 C 64.476562 39.007812 64.679688 36.878906 64.613281 34.730469 C 64.601562 34.414062 64.65625 34.109375 64.730469 33.804688 C 65.378906 31.183594 65.78125 28.527344 65.726562 25.667969 C 65.785156 24.15625 65.632812 22.507812 65.355469 20.878906 Z M 63.476562 39.183594 C 63.222656 40.980469 62.832031 42.75 62.238281 44.472656 C 61.367188 47 60.195312 49.382812 58.679688 51.597656 C 57.664062 53.082031 56.535156 54.464844 55.28125 55.757812 C 53.339844 57.765625 51.15625 59.464844 48.75 60.882812 C 45.8125 62.609375 42.675781 63.832031 39.351562 64.566406 C 38.066406 64.851562 36.765625 65.042969 35.453125 65.175781 C 34.4375 65.277344 33.421875 65.292969 32.40625 65.3125 C 28.28125 65.378906 24.316406 64.585938 20.484375 63.117188 C 17.398438 61.9375 14.574219 60.289062 12.011719 58.210938 C 9.296875 56.003906 7.011719 53.410156 5.1875 50.410156 C 3.59375 47.789062 2.429688 44.992188 1.703125 42.015625 C 1.304688 40.386719 1.058594 38.730469 0.945312 37.054688 C 0.867188 35.929688 0.851562 34.804688 0.910156 33.6875 C 1.027344 31.371094 1.421875 29.097656 2.085938 26.875 C 2.640625 25.027344 3.363281 23.25 4.265625 21.550781 C 5.308594 19.578125 6.550781 17.746094 8.003906 16.050781 C 9.984375 13.734375 12.25 11.757812 14.804688 10.109375 C 15.875 9.417969 16.96875 8.765625 18.136719 8.253906 C 18.160156 8.273438 18.179688 8.292969 18.203125 8.316406 C 17.4375 8.984375 16.648438 9.628906 15.910156 10.324219 C 13.503906 12.585938 11.390625 15.09375 9.605469 17.875 C 7.957031 20.4375 6.617188 23.148438 5.613281 26.027344 C 4.898438 28.085938 4.371094 30.191406 4.039062 32.339844 C 3.875 33.425781 3.789062 34.519531 3.722656 35.617188 C 3.664062 36.636719 3.6875 37.652344 3.742188 38.667969 C 3.851562 40.835938 4.210938 42.960938 4.816406 45.042969 C 5.566406 47.605469 6.6875 50 8.203125 52.199219 C 10.355469 55.3125 13.09375 57.769531 16.417969 59.582031 C 18.652344 60.800781 21.019531 61.640625 23.503906 62.148438 C 25.078125 62.46875 26.671875 62.628906 28.285156 62.675781 C 33.132812 62.820312 37.742188 61.820312 42.183594 59.929688 C 45.464844 58.535156 48.484375 56.699219 51.253906 54.460938 C 53.53125 52.621094 55.582031 50.554688 57.421875 48.273438 C 59.164062 46.109375 60.648438 43.785156 61.914062 41.316406 C 62.511719 40.140625 63.039062 38.929688 63.503906 37.695312 C 63.53125 37.621094 63.558594 37.550781 63.625 37.378906 C 63.667969 38.058594 63.558594 38.621094 63.476562 39.183594 Z M 64.6875 29.316406 C 64.613281 29.878906 64.535156 30.4375 64.464844 31 C 64.421875 30.976562 64.378906 30.953125 64.339844 30.933594 C 64.152344 29.542969 63.851562 28.179688 63.460938 26.835938 C 62.914062 24.941406 62.203125 23.109375 61.277344 21.367188 C 60.105469 19.164062 58.726562 17.101562 57.078125 15.21875 C 55.300781 13.1875 53.300781 11.410156 51.078125 9.886719 C 48.789062 8.320312 46.328125 7.0625 43.710938 6.117188 C 41.683594 5.386719 39.605469 4.855469 37.476562 4.523438 C 36.460938 4.367188 35.4375 4.273438 34.410156 4.207031 C 33.402344 4.136719 32.398438 4.140625 31.390625 4.15625 C 29.363281 4.183594 27.363281 4.453125 25.378906 4.851562 C 25.304688 4.839844 25.222656 4.867188 25.171875 4.785156 C 28.394531 3.128906 31.777344 1.964844 35.355469 1.355469 C 37.5 0.988281 39.65625 0.855469 41.816406 0.972656 C 45.003906 1.140625 48.078125 1.839844 51.007812 3.152344 C 53.945312 4.46875 56.5 6.308594 58.660156 8.6875 C 61.128906 11.40625 62.828125 14.5625 63.84375 18.089844 C 64.378906 19.9375 64.710938 21.820312 64.832031 23.742188 C 64.945312 25.605469 64.921875 27.460938 64.6875 29.316406 Z M 64.6875 29.316406 " fill-opacity="1" fill-rule="nonzero"/></g><g mask="url(#8c2cd2ac9d)"><g transform="matrix(1, 0, 0, 1, 11, 12)"><g clip-path="url(#471b337be4)"><g clip-path="url(#3f3b1cc288)"><path fill="#22222e" d="M 36.722656 2.675781 C 36.398438 1.703125 35.316406 1.082031 34.292969 1.125 C 33.769531 1.15625 33.300781 1.332031 32.882812 1.652344 C 32.46875 1.972656 32.175781 2.378906 32.011719 2.878906 C 31.839844 3.429688 31.863281 4.023438 31.9375 4.589844 C 32.011719 5.160156 32.140625 5.746094 32.488281 6.203125 C 33.289062 7.273438 35.0625 7.226562 36.03125 6.308594 C 37 5.390625 37.136719 3.941406 36.722656 2.675781 Z M 36.722656 2.675781 " fill-opacity="1" fill-rule="nonzero"/></g><path fill="#22222e" d="M 28.675781 19.039062 C 27.109375 18.472656 25.335938 18.347656 23.785156 18.964844 C 22.238281 19.582031 20.972656 21.011719 20.808594 22.671875 C 20.613281 24.6875 22.117188 26.640625 24.042969 27.273438 C 24.578125 27.449219 25.140625 27.542969 25.632812 27.808594 C 26.265625 28.148438 26.746094 28.75 27.410156 29.011719 C 29.328125 29.765625 32.570312 27.015625 33.046875 25.160156 C 33.753906 22.417969 30.976562 19.875 28.675781 19.039062 Z M 28.675781 19.039062 " fill-opacity="1" fill-rule="nonzero"/><path fill="#22222e" d="M 36.644531 16.5 C 36.265625 15.890625 35.605469 16.292969 35.007812 16.683594 C 34.40625 17.074219 34.21875 17.992188 34.640625 18.574219 C 35.058594 19.15625 36.003906 19.265625 36.535156 18.789062 C 37.148438 18.230469 37.085938 17.199219 36.644531 16.5 Z M 36.644531 16.5 " fill-opacity="1" fill-rule="nonzero"/><path fill="#22222e" d="M 31.546875 36.265625 C 31.226562 35.097656 30.328125 34.070312 29.144531 34.3125 C 28.011719 34.542969 27.140625 35.671875 27.195312 36.824219 C 27.253906 37.972656 28.234375 39.011719 29.378906 39.132812 C 30.199219 39.21875 31.066406 38.84375 31.519531 38.152344 C 31.976562 37.464844 31.765625 37.0625 31.546875 36.265625 Z M 31.546875 36.265625 " fill-opacity="1" fill-rule="nonzero"/><g clip-path="url(#fe1467b42e)"><path fill="#22222e" d="M 50.824219 20.214844 C 50.503906 19.046875 49.609375 18.015625 48.421875 18.257812 C 47.292969 18.492188 46.417969 19.617188 46.472656 20.769531 C 46.53125 21.921875 47.511719 22.957031 48.660156 23.078125 C 49.476562 23.164062 50.34375 22.789062 50.796875 22.101562 C 51.253906 21.410156 51.042969 21.007812 50.824219 20.214844 Z M 50.824219 20.214844 " fill-opacity="1" fill-rule="nonzero"/></g><g clip-path="url(#b793576bfd)"><path fill="#22222e" d="M 8.972656 7.589844 C 8.71875 6.417969 7.515625 5.796875 6.355469 5.503906 C 5.191406 5.210938 3.929688 5.503906 2.921875 6.144531 C 1.347656 7.15625 0.386719 9.089844 0.613281 10.949219 C 0.84375 12.804688 2.289062 14.480469 4.117188 14.886719 C 5.945312 15.296875 8.007812 14.363281 8.835938 12.683594 C 9.601562 11.132812 9.34375 9.28125 8.972656 7.589844 Z M 8.972656 7.589844 " fill-opacity="1" fill-rule="nonzero"/></g><g clip-path="url(#788148f8ed)"><path fill="#22222e" d="M 17.019531 37.453125 C 16.164062 35.710938 13.601562 37.46875 11.867188 38.339844 C 10.910156 38.816406 9.816406 39.515625 9.816406 40.578125 C 9.816406 41.585938 10.8125 42.289062 11.1875 43.222656 C 11.445312 43.867188 11.453125 44.679688 12.019531 45.074219 C 12.351562 45.304688 12.792969 45.316406 13.191406 45.246094 C 14.746094 44.96875 15.941406 43.625 16.484375 42.144531 C 17.027344 40.664062 17.71875 38.871094 17.019531 37.453125 Z M 17.019531 37.453125 " fill-opacity="1" fill-rule="nonzero"/></g><path fill="#22222e" d="M 16.601562 30.828125 C 16.332031 29.78125 15.085938 29.03125 14.574219 29.984375 C 14.277344 30.542969 14.78125 31.332031 15.339844 31.632812 C 15.902344 31.933594 16.761719 31.445312 16.601562 30.828125 Z M 16.601562 30.828125 " fill-opacity="1" fill-rule="nonzero"/><path fill="#22222e" d="M 10.867188 18.75 C 10.59375 17.703125 9.347656 16.953125 8.839844 17.902344 C 8.539062 18.464844 9.042969 19.25 9.601562 19.550781 C 10.164062 19.851562 11.023438 19.363281 10.867188 18.75 Z M 10.867188 18.75 " fill-opacity="1" fill-rule="nonzero"/><path fill="#22222e" d="M 15.535156 4.257812 C 15.265625 3.210938 14.019531 2.460938 13.507812 3.414062 C 13.207031 3.972656 13.710938 4.761719 14.273438 5.0625 C 14.832031 5.359375 15.695312 4.875 15.535156 4.257812 Z M 15.535156 4.257812 " fill-opacity="1" fill-rule="nonzero"/><path fill="#22222e" d="M 29.46875 16.269531 C 29.199219 15.222656 27.953125 14.46875 27.441406 15.421875 C 27.144531 15.984375 27.644531 16.769531 28.207031 17.070312 C 28.769531 17.371094 29.628906 16.882812 29.46875 16.269531 Z M 29.46875 16.269531 " fill-opacity="1" fill-rule="nonzero"/></g></g></g></svg>